<svg xmlns="http://www.w3.org/2000/svg" width="10.734" height="10.298" viewBox="0 0 10.734 10.298">
  <path id="패스_2503" data-name="패스 2503" d="M15.976,13.971a1.1,1.1,0,0,0,.978-.5l5.3-8.1A1.387,1.387,0,0,0,22.431,5a1.146,1.146,0,0,0,.053-.335.952.952,0,0,0-.291-.714,1.013,1.013,0,0,0-.734-.282,1,1,0,0,0-.511.121,1.26,1.26,0,0,0-.4.414l-4.6,7.277L13.6,8.547a1.026,1.026,0,0,0-.824-.4,1.01,1.01,0,0,0-.738.286.973.973,0,0,0-.291.725,1.034,1.034,0,0,0,.068.372,1.309,1.309,0,0,0,.233.372l2.97,3.611A1.193,1.193,0,0,0,15.976,13.971Z" transform="translate(-11.75 -3.673)" fill="#efe4d8"/>
</svg>
