<svg xmlns="http://www.w3.org/2000/svg" width="15.382" height="14.774" viewBox="0 0 15.382 14.774">
  <g id="Icon_feather-shopping-cart" data-name="Icon feather-shopping-cart" transform="translate(-0.5 -0.5)">
    <path id="패스_2293" data-name="패스 2293" d="M13.217,30.608A.608.608,0,1,1,12.608,30,.608.608,0,0,1,13.217,30.608Z" transform="translate(-6.242 -16.943)" fill="#6c5b5b" stroke="#6c5b5b" stroke-linecap="round" stroke-linejoin="round" stroke-width="2"/>
    <path id="패스_2294" data-name="패스 2294" d="M29.717,30.608A.608.608,0,1,1,29.108,30,.608.608,0,0,1,29.717,30.608Z" transform="translate(-16.051 -16.943)" fill="#6c5b5b" stroke="#6c5b5b" stroke-linecap="round" stroke-linejoin="round" stroke-width="2"/>
    <path id="패스_2295" data-name="패스 2295" d="M1.5,1.5H3.933l1.63,8.145a1.217,1.217,0,0,0,1.217.979h5.913a1.217,1.217,0,0,0,1.217-.979l.973-5.1H4.541" fill="#6c5b5b" stroke="#6c5b5b" stroke-linecap="round" stroke-linejoin="round" stroke-width="2"/>
  </g>
</svg>
