<svg xmlns="http://www.w3.org/2000/svg" width="27.5" height="20" viewBox="0 0 27.5 20">
  <path id="Icon_material-local-shipping" data-name="Icon material-local-shipping" d="M25.25,11H21.5V6H4A2.507,2.507,0,0,0,1.5,8.5V22.25H4a3.75,3.75,0,0,0,7.5,0H19a3.75,3.75,0,0,0,7.5,0H29V16ZM7.75,24.125A1.875,1.875,0,1,1,9.625,22.25,1.872,1.872,0,0,1,7.75,24.125Zm16.875-11.25L27.075,16H21.5V12.875ZM22.75,24.125a1.875,1.875,0,1,1,1.875-1.875A1.872,1.872,0,0,1,22.75,24.125Z" transform="translate(-1.5 -6)" fill="#6c5b5b"/>
</svg>
