<svg xmlns="http://www.w3.org/2000/svg" width="24.781" height="22" viewBox="0 0 24.781 22">
  <g id="Icon_feather-heart" data-name="Icon feather-heart" transform="translate(1.497 1.5)">
    <g id="Icon_feather-heart-2" data-name="Icon feather-heart" transform="translate(-2.323 -4.497)" fill="none" stroke-linecap="round" stroke-linejoin="round">
      <path d="M22.427,6.177a5.732,5.732,0,0,0-8.108,0l-1.1,1.1-1.1-1.1A5.733,5.733,0,1,0,4,14.285l1.1,1.1L13.215,23.5l8.108-8.108,1.1-1.1a5.732,5.732,0,0,0,0-8.108Z" stroke="none"/>
      <path d="M 18.37336349487305 4.497264862060547 C 16.90605545043945 4.497264862060547 15.43874740600586 5.057180404663086 14.31944179534912 6.177009582519531 L 13.21477222442627 7.281679153442383 L 12.11010265350342 6.177009582519531 C 9.871181488037109 3.938091278076172 6.241170883178711 3.938091278076172 4.002252578735352 6.177009582519531 C 1.763332366943359 8.415929794311523 1.763332366943359 12.04593944549561 4.002252578735352 14.2848596572876 L 13.21477222442627 23.49736976623535 L 22.42728233337402 14.2848596572876 C 24.66695213317871 12.04624938964844 24.66695213317871 8.415618896484375 22.42729187011719 6.177009582519531 L 22.42728233337402 6.177009582519531 C 21.3079776763916 5.057180404663086 19.84066963195801 4.497264862060547 18.37336349487305 4.497264862060547 M 18.37336349487305 2.997259140014648 C 20.30567169189453 2.997259140014648 22.12215232849121 3.749919891357422 23.48819160461426 5.116600036621094 C 24.85437202453613 6.48213005065918 25.60703277587891 8.298620223999023 25.60703277587891 10.23093032836914 C 25.60703277587891 12.16324996948242 24.85437202453613 13.97973918914795 23.48769187927246 15.34576988220215 L 14.27543258666992 24.55802917480469 C 13.68964195251465 25.14381980895996 12.73990249633789 25.14381980895996 12.15411186218262 24.55802917480469 L 2.941593170166016 15.34552001953125 C 0.1214027404785156 12.52532958984375 0.1214027404785156 7.936538696289062 2.941593170166016 5.116350173950195 C 4.307743072509766 3.750200271606445 6.124141693115234 2.997819900512695 8.056171417236328 2.997819900512695 C 9.988212585449219 2.997819900512695 11.804612159729 3.750200271606445 13.17076206207275 5.116350173950195 L 13.21477222442627 5.160360336303711 L 13.25878238677979 5.116350173950195 C 14.62456226348877 3.749919891357422 16.44104194641113 2.997259140014648 18.37336349487305 2.997259140014648 Z" stroke="none" fill="#6c5b5b"/>
    </g>
  </g>
</svg>
