<svg xmlns="http://www.w3.org/2000/svg" width="24.781" height="22" viewBox="0 0 24.781 22">
  <g id="Icon_feather-heart" data-name="Icon feather-heart" transform="translate(1.497 1.5)">
    <g id="Icon_feather-heart-2" data-name="Icon feather-heart" transform="translate(-2.323 -4.497)" fill="#d56c6c" stroke-linecap="round" stroke-linejoin="round">
      <path d="M 13.21477127075195 24.55802917480469 L 12.68444156646729 24.02770042419434 L 4.576591491699219 15.91984939575195 L 3.47192120552063 14.81518936157227 C 0.9441512823104858 12.28741931915283 0.9441512823104858 8.174449920654297 3.47192120552063 5.646679401397705 C 4.696421146392822 4.422179698944092 6.324471473693848 3.747819423675537 8.056180953979492 3.747819423675537 C 9.787880897521973 3.747819423675537 11.41593170166016 4.422179698944092 12.64043140411377 5.646679401397705 L 13.21477127075195 6.221019744873047 L 13.78911113739014 5.646679401397705 C 15.01327610015869 4.421944141387939 16.64153099060059 3.747269630432129 18.37333297729492 3.747269630432129 C 18.37343788146973 3.747269630432129 18.37326622009277 3.747269630432129 18.37337112426758 3.747269630432129 C 20.10528182983398 3.747259616851807 21.7333812713623 4.42186975479126 22.95774078369141 5.646799564361572 C 24.18243217468262 6.870919704437256 24.85704040527344 8.499019622802734 24.85704040527344 10.2309398651123 C 24.85704040527344 11.96284961700439 24.18243217468262 13.59095001220703 22.95750045776367 14.81530952453613 L 21.85295104980469 15.91984939575195 L 13.74510097503662 24.02770042419434 L 13.21477127075195 24.55802917480469 Z" stroke="none"/>
      <path d="M 18.37336349487305 4.497264862060547 C 16.90605545043945 4.497264862060547 15.43874740600586 5.057180404663086 14.31944179534912 6.177009582519531 L 13.21477222442627 7.281679153442383 L 12.11010265350342 6.177009582519531 C 9.871181488037109 3.938091278076172 6.241170883178711 3.938091278076172 4.002252578735352 6.177009582519531 C 1.763332366943359 8.415929794311523 1.763332366943359 12.04593944549561 4.002252578735352 14.2848596572876 L 13.21477222442627 23.49736976623535 L 22.42728233337402 14.2848596572876 C 24.66695213317871 12.04624938964844 24.66695213317871 8.415618896484375 22.42729187011719 6.177009582519531 L 22.42728233337402 6.177009582519531 C 21.3079776763916 5.057180404663086 19.84066963195801 4.497264862060547 18.37336349487305 4.497264862060547 M 18.37336349487305 2.997259140014648 C 20.30567169189453 2.997259140014648 22.12215232849121 3.749919891357422 23.48819160461426 5.116600036621094 C 24.85437202453613 6.48213005065918 25.60703277587891 8.298620223999023 25.60703277587891 10.23093032836914 C 25.60703277587891 12.16324996948242 24.85437202453613 13.97973918914795 23.48769187927246 15.34576988220215 L 14.27543258666992 24.55802917480469 C 13.68964195251465 25.14381980895996 12.73990249633789 25.14381980895996 12.15411186218262 24.55802917480469 L 2.941593170166016 15.34552001953125 C 0.1214027404785156 12.52532958984375 0.1214027404785156 7.936538696289062 2.941593170166016 5.116350173950195 C 4.307743072509766 3.750200271606445 6.124141693115234 2.997819900512695 8.056171417236328 2.997819900512695 C 9.988212585449219 2.997819900512695 11.804612159729 3.750200271606445 13.17076206207275 5.116350173950195 L 13.21477222442627 5.160360336303711 L 13.25878238677979 5.116350173950195 C 14.62456226348877 3.749919891357422 16.44104194641113 2.997259140014648 18.37336349487305 2.997259140014648 Z" stroke="none" fill="#d56c6c"/>
    </g>
  </g>
</svg>
