<svg xmlns="http://www.w3.org/2000/svg" width="13" height="16.9" viewBox="0 0 13 16.9">
  <path id="Icon_ionic-ios-lock" data-name="Icon ionic-ios-lock" d="M18.125,9.225H17.15v-1.9a3.9,3.9,0,1,0-7.8-.053v1.95H8.375A1.63,1.63,0,0,0,6.75,10.85v7.8a1.63,1.63,0,0,0,1.625,1.625h9.75A1.63,1.63,0,0,0,19.75,18.65v-7.8A1.63,1.63,0,0,0,18.125,9.225Zm-4.306,5.07v2.8a.583.583,0,0,1-.54.585.569.569,0,0,1-.6-.569V14.295a1.3,1.3,0,1,1,1.137,0Zm2.194-5.07H10.487V7.275a2.763,2.763,0,0,1,5.525,0Z" transform="translate(-6.75 -3.374)" fill="#474848"/>
</svg>
