<svg xmlns="http://www.w3.org/2000/svg" width="26.5" height="26.5" viewBox="0 0 26.5 26.5">
  <path id="빼기_3" data-name="빼기 3" d="M1852.25-2323.5a13.164,13.164,0,0,1-9.37-3.881,13.163,13.163,0,0,1-3.881-9.369,13.163,13.163,0,0,1,3.881-9.369,13.165,13.165,0,0,1,9.37-3.881,13.164,13.164,0,0,1,9.369,3.881,13.163,13.163,0,0,1,3.881,9.369,13.163,13.163,0,0,1-3.881,9.369A13.163,13.163,0,0,1,1852.25-2323.5Zm0-22.7a1.5,1.5,0,0,0-1.5,1.5v7.95a1.492,1.492,0,0,0,.829,1.342l5.3,2.65a1.5,1.5,0,0,0,.67.159,1.493,1.493,0,0,0,1.343-.83,1.5,1.5,0,0,0-.671-2.012l-4.471-2.236v-7.023A1.5,1.5,0,0,0,1852.25-2346.2Z" transform="translate(-1839 2350)" fill="#6c5b5b"/>
</svg>
