<svg xmlns="http://www.w3.org/2000/svg" width="20.433" height="18.167" viewBox="0 0 20.433 18.167">
  <path id="Icon_awesome-leaf" data-name="Icon awesome-leaf" d="M19.379.343a.552.552,0,0,0-1-.043,6.084,6.084,0,0,1-5.318,3.1H10.219a6.813,6.813,0,0,0-6.812,6.812,7.015,7.015,0,0,0,.053.727,16.973,16.973,0,0,1,10.164-3,.568.568,0,1,1,0,1.135C4.706,9.081.924,14.548.087,16.6a1.137,1.137,0,0,0,2.1.862A9.334,9.334,0,0,1,4.742,14.25a6.8,6.8,0,0,0,6.2,2.739c5.57-.4,9.49-5.4,9.49-11.516A12.9,12.9,0,0,0,19.379.343Z" transform="translate(-0.004 0.002)" fill="#fff"/>
</svg>
