<svg xmlns="http://www.w3.org/2000/svg" width="229.904" height="83.788" viewBox="0 0 229.904 83.788">
  <g id="그룹_3" data-name="그룹 3" transform="translate(-81.792 -507.5)">
    <path id="패스_3" data-name="패스 3" d="M14.5-25.75a10.5,10.5,0,0,1,4.85,1.15,6.079,6.079,0,0,1,3.05,3.15H23a6.825,6.825,0,0,1,2.75-3.125A8.481,8.481,0,0,1,30.3-25.75a9.683,9.683,0,0,1,3.625.65,8.231,8.231,0,0,1,2.8,1.825,8.131,8.131,0,0,1,1.825,2.85A10.22,10.22,0,0,1,39.2-16.7V-5.25a10.43,10.43,0,0,0,.275,2.125A4.657,4.657,0,0,0,40.9-.75V0H33.5V-.75a3.407,3.407,0,0,0,.875-1.075,6.522,6.522,0,0,0,.5-1.25,8.57,8.57,0,0,0,.25-1.2A8.017,8.017,0,0,0,35.2-5.3V-16.15a10.608,10.608,0,0,0-1.35-5.7A4.21,4.21,0,0,0,30.1-24a6.455,6.455,0,0,0-2.675.55,5.913,5.913,0,0,0-2.1,1.575A7.561,7.561,0,0,0,23.95-19.4a9.928,9.928,0,0,0-.5,3.25V-5.3a10.785,10.785,0,0,0,.275,2.15A4.655,4.655,0,0,0,25.15-.75V0h-7.4V-.75a3.407,3.407,0,0,0,.875-1.075,6.522,6.522,0,0,0,.5-1.25,8.57,8.57,0,0,0,.25-1.2A8.017,8.017,0,0,0,19.45-5.3V-16.15a10.455,10.455,0,0,0-1.375-5.7A4.393,4.393,0,0,0,14.15-24a5.668,5.668,0,0,0-2.525.575,6.336,6.336,0,0,0-2.05,1.6A7.561,7.561,0,0,0,8.2-19.35a9.764,9.764,0,0,0-.5,3.2V-5.3a10.785,10.785,0,0,0,.275,2.15A4.655,4.655,0,0,0,9.4-.75V0H2V-.75A3.507,3.507,0,0,0,2.875-1.8a5.919,5.919,0,0,0,.5-1.225,8.57,8.57,0,0,0,.25-1.2A8.017,8.017,0,0,0,3.7-5.25v-14.1a5.013,5.013,0,0,0-.4-1.85,4.584,4.584,0,0,0-1.25-1.75v-.75a7.4,7.4,0,0,0,2.35-.6,4.1,4.1,0,0,0,1.8-1.45h.9v4.3h.6a7.225,7.225,0,0,1,2.55-3.125A7.3,7.3,0,0,1,14.5-25.75Zm39.9,0a11.793,11.793,0,0,1,6.625,1.675A5.138,5.138,0,0,1,63.55-19.6V-3.85a6.636,6.636,0,0,0,.075.925,4.036,4.036,0,0,0,.275,1,2.285,2.285,0,0,0,.55.8A1.2,1.2,0,0,0,65.3-.8v.75a3.078,3.078,0,0,1-.95.25q-.5.05-.75.05A3.465,3.465,0,0,1,62.075-.1a4.07,4.07,0,0,1-1.25-.925A4.522,4.522,0,0,1,60-2.3a3.421,3.421,0,0,1-.3-1.35h-.3A7.029,7.029,0,0,1,56.6-.475,8.01,8.01,0,0,1,52.25.75a8.589,8.589,0,0,1-5.7-1.8,5.944,5.944,0,0,1-2.15-4.8,5.991,5.991,0,0,1,1.125-3.7,11.019,11.019,0,0,1,2.8-2.6,23.7,23.7,0,0,1,3.65-1.95q1.975-.85,3.65-1.725a13.238,13.238,0,0,0,2.8-1.9A3.229,3.229,0,0,0,59.55-20.2a3.3,3.3,0,0,0-1.475-2.875A6.287,6.287,0,0,0,54.4-24.1a5.768,5.768,0,0,0-3.925,1.325A10.874,10.874,0,0,0,47.8-18.7H46.4v-5.8q2.1-.55,4.125-.9A22.767,22.767,0,0,1,54.4-25.75Zm5.15,9.8a6.741,6.741,0,0,1-1.8,1.5q-1.1.65-2.325,1.25t-2.5,1.2a12.127,12.127,0,0,0-2.275,1.375A7.22,7.22,0,0,0,49-8.85a4.215,4.215,0,0,0-.65,2.35,5.19,5.19,0,0,0,1.225,3.7A4.413,4.413,0,0,0,52.95-1.5a4.989,4.989,0,0,0,2.7-.75,7.163,7.163,0,0,0,2.075-2,9.685,9.685,0,0,0,1.35-2.9,12.409,12.409,0,0,0,.475-3.45Zm20.4-9.8a22.2,22.2,0,0,1,4.1.375A21.929,21.929,0,0,0,88.1-25v6.3H86.65a22.854,22.854,0,0,0-3.025-3.975A4.849,4.849,0,0,0,80.05-24.1a7.054,7.054,0,0,0-3.2.725,7.152,7.152,0,0,0-2.5,2.1A10.522,10.522,0,0,0,72.7-17.95a15.133,15.133,0,0,0-.6,4.45v1.3a15.265,15.265,0,0,0,.6,4.4,9.9,9.9,0,0,0,1.725,3.4,7.911,7.911,0,0,0,2.7,2.175,7.876,7.876,0,0,0,3.525.775,7.755,7.755,0,0,0,4.125-1A9.537,9.537,0,0,0,87.65-5.3l1.2,1.15A8.516,8.516,0,0,1,85.175-.6,11.951,11.951,0,0,1,79.45.75,11.153,11.153,0,0,1,74.8-.2a10.25,10.25,0,0,1-3.6-2.7,12.542,12.542,0,0,1-2.325-4.175A16.776,16.776,0,0,1,68.05-12.5a17.072,17.072,0,0,1,.775-5.225,12.157,12.157,0,0,1,2.275-4.2,10.617,10.617,0,0,1,3.725-2.8A12.127,12.127,0,0,1,79.95-25.75ZM97.6-10.8l8.55-10.55a2.834,2.834,0,0,0,.775-1.525,1.6,1.6,0,0,0-.675-1.375V-25h5.85v.75a4.983,4.983,0,0,0-1.8,1.075,15.052,15.052,0,0,0-1.7,1.725l-4.9,6,6.75,11.6a8.941,8.941,0,0,0,1.35,1.825A4.89,4.89,0,0,0,114.2-.65V0h-6.15L101-12.2,97.6-8.05v2.8a10.43,10.43,0,0,0,.275,2.125A4.657,4.657,0,0,0,99.3-.75V0H91.9V-.75a3.507,3.507,0,0,0,.875-1.05,5.919,5.919,0,0,0,.5-1.225,8.569,8.569,0,0,0,.25-1.2A8.018,8.018,0,0,0,93.6-5.25V-31.1a5.013,5.013,0,0,0-.4-1.85,4.584,4.584,0,0,0-1.25-1.75v-.75a11.081,11.081,0,0,0,2.6-.525A4.385,4.385,0,0,0,96.7-37.5h.9Zm28.05-14.95a12.563,12.563,0,0,1,3.9.6,8.977,8.977,0,0,1,3.25,1.85,9.232,9.232,0,0,1,2.25,3.125,10.64,10.64,0,0,1,.85,4.425v1.65H118.5v1.9q0,5.05,2.1,7.9a7.005,7.005,0,0,0,6,2.85,8.5,8.5,0,0,0,4.6-1.25A8.293,8.293,0,0,0,134.25-6l1.35,1.6a9.128,9.128,0,0,1-3.825,3.75A11.788,11.788,0,0,1,126.05.75a11.551,11.551,0,0,1-4.675-.95A10.9,10.9,0,0,1,117.6-2.925,12.751,12.751,0,0,1,115.1-7.2a16.29,16.29,0,0,1-.9-5.55,16.159,16.159,0,0,1,.825-5.325,12.11,12.11,0,0,1,2.35-4.1A10.356,10.356,0,0,1,121-24.825,11.411,11.411,0,0,1,125.65-25.75Zm6.25,10v-.45a10,10,0,0,0-.475-3.175,7.8,7.8,0,0,0-1.3-2.45,5.978,5.978,0,0,0-1.95-1.6A5.358,5.358,0,0,0,125.7-24a5.987,5.987,0,0,0-2.8.675,7.849,7.849,0,0,0-2.275,1.775,8.413,8.413,0,0,0-1.525,2.475,7.3,7.3,0,0,0-.55,2.725v.6Zm12.15-5.7h.6a7.164,7.164,0,0,1,2.575-3.125A7.606,7.606,0,0,1,151.6-25.75a9.682,9.682,0,0,1,3.55.625,8.364,8.364,0,0,1,2.775,1.75,7.815,7.815,0,0,1,1.825,2.7,9.024,9.024,0,0,1,.65,3.475V-4.9a10,10,0,0,0,.225,2.1A3.722,3.722,0,0,0,162.15-.75V0H154.7V-.75a6.579,6.579,0,0,0,1.35-2.225A6.3,6.3,0,0,0,156.4-4.9V-16.4a10.308,10.308,0,0,0-1.3-5.525A4.126,4.126,0,0,0,151.4-24a6.216,6.216,0,0,0-2.675.575A6.3,6.3,0,0,0,146.6-21.8a7.963,7.963,0,0,0-1.425,2.5,9.5,9.5,0,0,0-.525,3.25v10.8a11.04,11.04,0,0,0,.25,2.1,4.631,4.631,0,0,0,1.45,2.4V0h-7.4V-.75a4.178,4.178,0,0,0,1.4-2.3,10.605,10.605,0,0,0,.3-2.2v-14.1a5.013,5.013,0,0,0-.4-1.85A4.584,4.584,0,0,0,139-22.95v-.75a7.638,7.638,0,0,0,2.5-.6,3.235,3.235,0,0,0,1.65-1.45h.9ZM184.5-6.75,183.2,0H165.15V-1l14.5-22.35H174.8a7.163,7.163,0,0,0-4.325,1.325A9.528,9.528,0,0,0,167.6-18.7h-1.95l1.8-6.3H184.2v1L169.8-1.65h6.9a5.982,5.982,0,0,0,3.65-1.225A7.756,7.756,0,0,0,182.9-6.75Zm6.8-20.75a2.655,2.655,0,0,1-2-.775,2.857,2.857,0,0,1-.75-2.075,2.857,2.857,0,0,1,.75-2.075,2.655,2.655,0,0,1,2-.775,2.592,2.592,0,0,1,1.95.775A2.857,2.857,0,0,1,194-30.35a2.857,2.857,0,0,1-.75,2.075A2.592,2.592,0,0,1,191.3-27.5Zm2.45,22.25a10.43,10.43,0,0,0,.275,2.125A4.657,4.657,0,0,0,195.45-.75V0h-7.4V-.75a3.507,3.507,0,0,0,.875-1.05,5.919,5.919,0,0,0,.5-1.225,8.57,8.57,0,0,0,.25-1.2,8.017,8.017,0,0,0,.075-1.025v-14.1a5.013,5.013,0,0,0-.4-1.85,4.584,4.584,0,0,0-1.25-1.75v-.75a11.081,11.081,0,0,0,2.6-.525,4.385,4.385,0,0,0,2.15-1.525h.9Zm15.65-20.5a12.563,12.563,0,0,1,3.9.6,8.977,8.977,0,0,1,3.25,1.85,9.232,9.232,0,0,1,2.25,3.125,10.64,10.64,0,0,1,.85,4.425v1.65h-17.4v1.9q0,5.05,2.1,7.9a7.005,7.005,0,0,0,6,2.85,8.5,8.5,0,0,0,4.6-1.25A8.293,8.293,0,0,0,218-6l1.35,1.6a9.128,9.128,0,0,1-3.825,3.75A11.788,11.788,0,0,1,209.8.75a11.551,11.551,0,0,1-4.675-.95,10.9,10.9,0,0,1-3.775-2.725,12.751,12.751,0,0,1-2.5-4.275,16.29,16.29,0,0,1-.9-5.55,16.158,16.158,0,0,1,.825-5.325,12.11,12.11,0,0,1,2.35-4.1,10.356,10.356,0,0,1,3.625-2.65A11.411,11.411,0,0,1,209.4-25.75Zm6.25,10v-.45a10,10,0,0,0-.475-3.175,7.8,7.8,0,0,0-1.3-2.45,5.978,5.978,0,0,0-1.95-1.6A5.358,5.358,0,0,0,209.45-24a5.987,5.987,0,0,0-2.8.675,7.848,7.848,0,0,0-2.275,1.775,8.413,8.413,0,0,0-1.525,2.475,7.3,7.3,0,0,0-.55,2.725v.6Z" transform="translate(84 545)" fill="#6c5b5b"/>
    <path id="패스_4" data-name="패스 4" d="M-107.816,0h-1.152V-4.88l-4.24-6.448h1.44l3.376,5.344,3.376-5.344h1.44l-4.24,6.448Zm15.344-5.664a5.456,5.456,0,0,0-.32-1.864,4.717,4.717,0,0,0-.92-1.56,4.431,4.431,0,0,0-1.464-1.072,4.594,4.594,0,0,0-1.952-.4,4.594,4.594,0,0,0-1.952.4,4.431,4.431,0,0,0-1.464,1.072,4.717,4.717,0,0,0-.92,1.56,5.456,5.456,0,0,0-.32,1.864,5.456,5.456,0,0,0,.32,1.864,4.717,4.717,0,0,0,.92,1.56A4.431,4.431,0,0,0-99.08-1.168a4.594,4.594,0,0,0,1.952.4,4.594,4.594,0,0,0,1.952-.4A4.431,4.431,0,0,0-93.712-2.24a4.717,4.717,0,0,0,.92-1.56A5.456,5.456,0,0,0-92.472-5.664Zm1.248,0a6.2,6.2,0,0,1-.448,2.384,5.689,5.689,0,0,1-1.24,1.88A5.71,5.71,0,0,1-94.784-.16a6.057,6.057,0,0,1-2.344.448A6.057,6.057,0,0,1-99.472-.16a5.71,5.71,0,0,1-1.872-1.24,5.689,5.689,0,0,1-1.24-1.88,6.2,6.2,0,0,1-.448-2.384,6.2,6.2,0,0,1,.448-2.384,5.689,5.689,0,0,1,1.24-1.88,5.71,5.71,0,0,1,1.872-1.24,6.057,6.057,0,0,1,2.344-.448,6.057,6.057,0,0,1,2.344.448,5.71,5.71,0,0,1,1.872,1.24,5.689,5.689,0,0,1,1.24,1.88A6.2,6.2,0,0,1-91.224-5.664Zm10.4,1.44a7.222,7.222,0,0,1-.168,1.5,4.021,4.021,0,0,1-.632,1.464A3.605,3.605,0,0,1-82.9-.152a4.309,4.309,0,0,1-2.072.44,4.3,4.3,0,0,1-2.08-.44,3.624,3.624,0,0,1-1.264-1.112,4.021,4.021,0,0,1-.632-1.464,7.222,7.222,0,0,1-.168-1.5v-7.1h1.152v6.976a5.351,5.351,0,0,0,.16,1.4,3.419,3.419,0,0,0,.424.984,2.336,2.336,0,0,0,.592.632,3.079,3.079,0,0,0,.656.36,2.717,2.717,0,0,0,.632.168,4.121,4.121,0,0,0,.528.04,4.222,4.222,0,0,0,.52-.04,2.709,2.709,0,0,0,.64-.168,3.079,3.079,0,0,0,.656-.36,2.336,2.336,0,0,0,.592-.632,3.419,3.419,0,0,0,.424-.984,5.351,5.351,0,0,0,.16-1.4v-6.976h1.152Zm4.032-2.1h2.048a4.607,4.607,0,0,0,1.3-.16,2.423,2.423,0,0,0,.856-.424,1.547,1.547,0,0,0,.464-.624,2.07,2.07,0,0,0,.144-.776,2.027,2.027,0,0,0-.144-.76,1.608,1.608,0,0,0-.464-.632,2.257,2.257,0,0,0-.856-.424,4.836,4.836,0,0,0-1.3-.152h-2.048Zm0,6.32h-1.152V-11.328h3.488a4.442,4.442,0,0,1,2.728.752,2.661,2.661,0,0,1,1,2.272,2.831,2.831,0,0,1-.744,1.992,3.2,3.2,0,0,1-2.152.936L-70.36,0h-1.408l-3.1-5.264h-1.92Zm12.64-2.32a2.191,2.191,0,0,0,.592,1.136,1.658,1.658,0,0,0,1.2.416,1.874,1.874,0,0,0,1.016-.248,1.746,1.746,0,0,0,.608-.64,2.728,2.728,0,0,0,.3-.9,6.574,6.574,0,0,0,.08-1.032v-7.744h1.152V-3.1a4.778,4.778,0,0,1-.152,1.176A2.951,2.951,0,0,1-59.888-.84a2.958,2.958,0,0,1-.984.808,3.24,3.24,0,0,1-1.52.32,3.118,3.118,0,0,1-1.952-.6A2.665,2.665,0,0,1-65.32-2.08ZM-46.5-5.664a5.456,5.456,0,0,0-.32-1.864,4.717,4.717,0,0,0-.92-1.56,4.431,4.431,0,0,0-1.464-1.072,4.594,4.594,0,0,0-1.952-.4,4.594,4.594,0,0,0-1.952.4,4.431,4.431,0,0,0-1.464,1.072,4.717,4.717,0,0,0-.92,1.56,5.456,5.456,0,0,0-.32,1.864A5.456,5.456,0,0,0-55.5-3.8a4.717,4.717,0,0,0,.92,1.56,4.431,4.431,0,0,0,1.464,1.072,4.594,4.594,0,0,0,1.952.4,4.594,4.594,0,0,0,1.952-.4A4.431,4.431,0,0,0-47.744-2.24a4.717,4.717,0,0,0,.92-1.56A5.456,5.456,0,0,0-46.5-5.664Zm1.248,0A6.2,6.2,0,0,1-45.7-3.28a5.689,5.689,0,0,1-1.24,1.88A5.71,5.71,0,0,1-48.816-.16,6.057,6.057,0,0,1-51.16.288,6.057,6.057,0,0,1-53.5-.16,5.71,5.71,0,0,1-55.376-1.4a5.689,5.689,0,0,1-1.24-1.88,6.2,6.2,0,0,1-.448-2.384,6.2,6.2,0,0,1,.448-2.384,5.689,5.689,0,0,1,1.24-1.88,5.71,5.71,0,0,1,1.872-1.24,6.057,6.057,0,0,1,2.344-.448,6.057,6.057,0,0,1,2.344.448,5.71,5.71,0,0,1,1.872,1.24,5.689,5.689,0,0,1,1.24,1.88A6.2,6.2,0,0,1-45.256-5.664Zm10.4,1.44a7.222,7.222,0,0,1-.168,1.5,4.021,4.021,0,0,1-.632,1.464A3.605,3.605,0,0,1-36.928-.152,4.309,4.309,0,0,1-39,.288a4.3,4.3,0,0,1-2.08-.44,3.624,3.624,0,0,1-1.264-1.112,4.021,4.021,0,0,1-.632-1.464,7.222,7.222,0,0,1-.168-1.5v-7.1h1.152v6.976a5.351,5.351,0,0,0,.16,1.4,3.419,3.419,0,0,0,.424.984,2.336,2.336,0,0,0,.592.632,3.079,3.079,0,0,0,.656.36,2.717,2.717,0,0,0,.632.168A4.121,4.121,0,0,0-39-.768a4.222,4.222,0,0,0,.52-.04,2.709,2.709,0,0,0,.64-.168,3.079,3.079,0,0,0,.656-.36,2.336,2.336,0,0,0,.592-.632,3.419,3.419,0,0,0,.424-.984,5.351,5.351,0,0,0,.16-1.4v-6.976h1.152Zm4.032-2.1h2.048a4.607,4.607,0,0,0,1.3-.16,2.423,2.423,0,0,0,.856-.424,1.547,1.547,0,0,0,.464-.624,2.07,2.07,0,0,0,.144-.776,2.027,2.027,0,0,0-.144-.76,1.608,1.608,0,0,0-.464-.632,2.257,2.257,0,0,0-.856-.424,4.836,4.836,0,0,0-1.3-.152h-2.048Zm0,6.32h-1.152V-11.328h3.488a4.442,4.442,0,0,1,2.728.752,2.661,2.661,0,0,1,1,2.272A2.831,2.831,0,0,1-25.5-6.312a3.2,3.2,0,0,1-2.152.936L-24.392,0H-25.8l-3.1-5.264h-1.92ZM-14.3-1.728h.032v-9.6h1.152V0h-1.44L-21.3-9.7h-.032V0h-1.152V-11.328h1.44Zm5.408.672h6.064V0H-10.04V-11.328h7.024v1.056H-8.888v3.856H-3.4V-5.36H-8.888ZM3.08,0H1.928V-4.88l-4.24-6.448h1.44L2.5-5.984,5.88-11.328H7.32L3.08-4.88ZM15.544-1.632h.032l2.848-9.7H19.8l2.848,9.7h.032l2.688-9.7h1.28L23.3,0H21.96L19.112-9.7H19.08L16.232,0H14.888L11.544-11.328h1.28ZM29.336,0H28.184V-11.328h1.152Zm6.7,0H34.888V-10.272H31.1v-1.056h8.736v1.056H36.04Zm5.552-11.328h1.152v4.912H48.92v-4.912h1.152V0H48.92V-5.36H42.744V0H41.592ZM66.92-1.792a4.389,4.389,0,0,1-.712.816,4.5,4.5,0,0,1-.968.664,5.52,5.52,0,0,1-1.176.44,5.426,5.426,0,0,1-1.336.16A6.057,6.057,0,0,1,60.384-.16,5.71,5.71,0,0,1,58.512-1.4a5.689,5.689,0,0,1-1.24-1.88,6.2,6.2,0,0,1-.448-2.384,6.2,6.2,0,0,1,.448-2.384,5.689,5.689,0,0,1,1.24-1.88,5.71,5.71,0,0,1,1.872-1.24,6.057,6.057,0,0,1,2.344-.448,5.725,5.725,0,0,1,2.112.416,4.259,4.259,0,0,1,1.808,1.376l-1.008.752a2.745,2.745,0,0,0-.48-.544,3.493,3.493,0,0,0-.7-.48,4.316,4.316,0,0,0-.84-.336,3.248,3.248,0,0,0-.9-.128,4.594,4.594,0,0,0-1.952.4,4.431,4.431,0,0,0-1.464,1.072,4.717,4.717,0,0,0-.92,1.56,5.456,5.456,0,0,0-.32,1.864,5.456,5.456,0,0,0,.32,1.864,4.717,4.717,0,0,0,.92,1.56,4.431,4.431,0,0,0,1.464,1.072,4.594,4.594,0,0,0,1.952.4,4.954,4.954,0,0,0,.888-.08,3.688,3.688,0,0,0,.864-.272,3.264,3.264,0,0,0,.8-.52,3.86,3.86,0,0,0,.7-.824ZM78.648-5.664a5.456,5.456,0,0,0-.32-1.864,4.717,4.717,0,0,0-.92-1.56,4.431,4.431,0,0,0-1.464-1.072,4.594,4.594,0,0,0-1.952-.4,4.594,4.594,0,0,0-1.952.4,4.431,4.431,0,0,0-1.464,1.072,4.717,4.717,0,0,0-.92,1.56,5.456,5.456,0,0,0-.32,1.864,5.456,5.456,0,0,0,.32,1.864,4.717,4.717,0,0,0,.92,1.56A4.431,4.431,0,0,0,72.04-1.168a4.594,4.594,0,0,0,1.952.4,4.594,4.594,0,0,0,1.952-.4A4.431,4.431,0,0,0,77.408-2.24a4.717,4.717,0,0,0,.92-1.56A5.456,5.456,0,0,0,78.648-5.664Zm1.248,0a6.2,6.2,0,0,1-.448,2.384,5.689,5.689,0,0,1-1.24,1.88A5.71,5.71,0,0,1,76.336-.16a6.057,6.057,0,0,1-2.344.448A6.057,6.057,0,0,1,71.648-.16,5.71,5.71,0,0,1,69.776-1.4a5.689,5.689,0,0,1-1.24-1.88,6.2,6.2,0,0,1-.448-2.384,6.2,6.2,0,0,1,.448-2.384,5.689,5.689,0,0,1,1.24-1.88,5.71,5.71,0,0,1,1.872-1.24,6.057,6.057,0,0,1,2.344-.448,6.057,6.057,0,0,1,2.344.448,5.71,5.71,0,0,1,1.872,1.24,5.689,5.689,0,0,1,1.24,1.88A6.2,6.2,0,0,1,79.9-5.664ZM83.352,0H82.2V-11.328h6.832v1.056h-5.68v3.856h5.28V-5.36h-5.28Zm8.9,0H91.1V-11.328h6.832v1.056h-5.68v3.856h5.28V-5.36h-5.28Zm8.9-1.056h6.064V0H99.992V-11.328h7.024v1.056h-5.872v3.856h5.488V-5.36h-5.488Zm9.488,0H116.7V0H109.48V-11.328H116.5v1.056h-5.872v3.856h5.488V-5.36h-5.488Z" transform="translate(195 591)" fill="#6c5b5b"/>
    <line id="선_1" data-name="선 1" x2="226" transform="translate(82.5 565.5)" fill="none" stroke="#6c5b5b" stroke-width="1"/>
  </g>
</svg>
