<svg xmlns="http://www.w3.org/2000/svg" width="294.167" height="254" viewBox="0 0 294.167 254">
  <g id="그룹_2" data-name="그룹 2" transform="translate(-58 -168)">
    <circle id="타원_2" data-name="타원 2" cx="127" cy="127" r="127" transform="translate(58 168)" fill="#fff"/>
    <circle id="타원_3" data-name="타원 3" cx="107" cy="107" r="107" transform="translate(78 188)" fill="#a3988f"/>
    <path id="교차_1" data-name="교차 1" d="M23.736,175.278A107.795,107.795,0,0,1,175.27,23.73,107.8,107.8,0,0,1,23.736,175.278Z" transform="translate(78 188)" fill="#6c5b5b"/>
    <path id="패스_1" data-name="패스 1" d="M66.7,28.209c.457-.786,1.3-.31,2.673,0s6.243,3.681,6.243,3.681h4.61s.442-.59,2.825-.787,7.435,0,7.435,0,7.74-7.562,10.247-8.17-2.4,13.735-2.4,13.735.854,12.779.382,15.037,3.11,4.016,3.626,7.2,0,14.373,0,14.373,8.952,19.474,9.748,22.837,3.632,12.144.664,22.494-10.817,17.184-12.536,18.906-7.833,7.637-7.833,7.637l-2.637,1.712-1.636,1.208s-6.58,7.276-8.383,8.7-8.89,5.005-8.89,5.005l-3.226.87s-1.374.147-2.244.276a3.739,3.739,0,0,0-1.234.239,3.716,3.716,0,0,1-1,.339c-.7.16.169.135-1.8.3a24.616,24.616,0,0,1-6.134.275c-3.74-.244-11.956-.6-13.488-1.318s-6.413-3.439-8.162-7.408-4.522-8.774.781-16.027,17.94,0,17.94,0,3.917,2.826,3.388,5.877-.217,3.158-1.777,3.656-3.551-.994-4.465-1.664-2.458-1.365-3.41-.684-2.786,4.113.667,4.981,9.5.22,12.395-1.579,11.271-4.758,12.206-8.058,1.083-3.324,1.288-5.076a4.622,4.622,0,0,0-1.288-4.135c-1-.817-5.983-8.037-6.52-10.4s-3.074-5.253-3.479-6.608-1.656-2.362-2.207-8.3-2.433-7.616,0-15.448S68.8,76.007,68.8,76.007V62.264s-1.359-2.056-1.241-3.356A9.665,9.665,0,0,1,68.8,55.76V45.949a9.6,9.6,0,0,0-.526-2.236A5.844,5.844,0,0,1,68,39.122a6.3,6.3,0,0,0,.8-2.453V33.774S66.246,29,66.7,28.209Z" transform="translate(104.865 199.108)" fill="#fff" stroke="#707070" stroke-width="0.3"/>
    <rect id="사각형_2" data-name="사각형 2" width="28.847" height="57.623" rx="4" transform="translate(352.167 280.503) rotate(90)" fill="#fff"/>
    <g id="그룹_1" data-name="그룹 1" transform="translate(313.879 387.306) rotate(120)">
      <ellipse id="타원_1" data-name="타원 1" cx="11.539" cy="14.423" rx="11.539" ry="14.423" transform="translate(0)" fill="#6c5b5b"/>
      <path id="패스_2" data-name="패스 2" d="M1.207,0A34.881,34.881,0,0,0,0,9.123c0,5.133,1.89,5.789,2.384,10.739a21.507,21.507,0,0,1-1.177,9.126" transform="translate(10.35 0)" fill="none" stroke="#d5c4b0" stroke-width="1"/>
    </g>
  </g>
</svg>
